<svg width="750" height="750" viewBox="0 0 750 750" fill="none" xmlns="http://www.w3.org/2000/svg">
<path d="M465.269 447.012C458.626 435.427 448.317 427.58 437.435 424.627C428.836 422.279 419.918 422.999 412.203 427.359L389.253 387.236C403.457 358.903 435.341 295.38 441.06 285.366C448.472 272.414 435.21 257 435.21 257L374.993 362.315L314.792 257C314.792 257 301.537 272.414 308.942 285.358C314.669 295.38 346.561 358.895 360.748 387.228L337.807 427.351C330.091 422.99 321.157 422.27 312.574 424.618C301.676 427.572 291.376 435.418 284.732 447.004C272.803 467.842 277.36 492.837 294.869 502.86C302.634 507.319 311.625 508.031 320.29 505.683C331.163 502.713 341.489 494.867 348.124 483.306C351.028 478.2 352.951 472.858 353.933 467.548V467.556C353.941 467.515 353.941 467.474 353.982 467.433C354.039 466.992 354.121 466.55 354.162 466.067C359.087 433.021 368.398 416.142 374.984 407.944C381.587 416.142 390.906 433.013 395.823 466.067C395.872 466.55 395.954 466.992 395.995 467.433C396.028 467.474 396.028 467.515 396.044 467.556V467.548C397.034 472.85 398.949 478.2 401.845 483.306C408.488 494.867 418.814 502.713 429.695 505.683C438.36 508.031 447.352 507.319 455.132 502.86C472.649 492.837 477.19 467.851 465.269 447.012ZM331.09 473.553C327.326 480.123 321.362 485.073 315.152 486.767C312.386 487.519 308.328 487.978 304.605 485.842C296.669 481.301 295.368 467.957 301.775 456.748C305.604 450.104 311.404 445.269 317.729 443.543C320.47 442.798 324.528 442.348 328.267 444.467C336.211 449.024 337.504 462.336 331.09 473.553ZM445.388 485.842C441.665 487.986 437.624 487.519 434.858 486.767C428.64 485.073 422.684 480.123 418.912 473.553C412.506 462.336 413.798 449.024 421.743 444.467C425.482 442.34 429.54 442.798 432.289 443.543C438.597 445.269 444.414 450.104 448.219 456.748C454.625 467.957 453.332 481.301 445.388 485.842Z" fill="white"/>
<path d="M187.437 589.4C187.437 591.3 187.937 592.85 188.937 594.05C189.937 595.25 191.262 596.25 192.912 597.05C194.612 597.8 196.462 598.475 198.462 599.075C200.462 599.675 202.462 600.35 204.462 601.1C206.462 601.8 208.287 602.7 209.937 603.8C211.587 604.85 212.912 606.25 213.912 608C214.962 609.7 215.487 611.85 215.487 614.45C215.487 617.95 214.587 620.825 212.787 623.075C211.037 625.325 208.687 627 205.737 628.1C202.787 629.15 199.562 629.675 196.062 629.675C193.562 629.675 191.012 629.425 188.412 628.925C185.812 628.375 183.262 627.575 180.762 626.525L181.212 614.225H184.887L186.012 622.775C189.362 624.225 192.837 624.95 196.437 624.95C198.787 624.95 200.937 624.6 202.887 623.9C204.837 623.2 206.412 622.125 207.612 620.675C208.812 619.225 209.412 617.425 209.412 615.275C209.412 613.275 208.887 611.675 207.837 610.475C206.837 609.225 205.512 608.225 203.862 607.475C202.212 606.675 200.387 605.975 198.387 605.375C196.387 604.775 194.387 604.125 192.387 603.425C190.387 602.725 188.562 601.85 186.912 600.8C185.262 599.75 183.912 598.4 182.862 596.75C181.862 595.05 181.362 592.9 181.362 590.3C181.362 587.1 182.137 584.45 183.687 582.35C185.287 580.2 187.437 578.6 190.137 577.55C192.837 576.5 195.887 575.975 199.287 575.975C204.187 575.975 209.137 577 214.137 579.05L213.537 590.825H209.787L208.737 582.425C207.337 581.875 205.837 581.45 204.237 581.15C202.637 580.85 201.037 580.7 199.437 580.7C197.337 580.7 195.362 581 193.512 581.6C191.712 582.15 190.237 583.075 189.087 584.375C187.987 585.675 187.437 587.35 187.437 589.4ZM242.331 579.875L235.806 581.375V624.425L242.331 625.775V629H223.206V625.775L229.656 624.425V581.375L223.206 580.25V577.025L242.331 576.65V579.875ZM284.373 577.025L302.598 576.65V579.875L296.073 581.375V629H289.173L261.273 584.6V624.425L267.723 625.775V629H249.573V625.775L256.023 624.425V581.375L249.573 580.25V577.025L263.373 576.65L290.898 620.3V581.3L284.373 580.25V577.025ZM331.547 629.675C327.547 629.675 323.897 628.65 320.597 626.6C317.297 624.55 314.672 621.55 312.722 617.6C310.822 613.65 309.872 608.8 309.872 603.05C309.872 597.4 310.847 592.55 312.797 588.5C314.747 584.45 317.472 581.35 320.972 579.2C324.472 577.05 328.547 575.975 333.197 575.975C335.647 575.975 338.222 576.275 340.922 576.875C343.622 577.475 346.447 578.425 349.397 579.725L348.872 591.5H345.197L343.997 583.025C342.097 582.325 340.222 581.8 338.372 581.45C336.572 581.05 334.872 580.85 333.272 580.85C328.122 580.85 324.022 582.775 320.972 586.625C317.972 590.425 316.472 595.65 316.472 602.3C316.472 607.1 317.197 611.15 318.647 614.45C320.097 617.75 322.072 620.275 324.572 622.025C327.122 623.725 329.972 624.575 333.122 624.575C335.422 624.575 337.822 624.075 340.322 623.075C342.872 622.075 345.322 620.55 347.672 618.5L350.147 622.175C347.247 624.725 344.172 626.625 340.922 627.875C337.722 629.075 334.597 629.675 331.547 629.675ZM391.584 616.7H395.334V629H357.459V625.775L363.909 624.425V581.45L357.459 580.25V577.025L369.984 576.65H394.434V588.5H390.684L389.484 581.225H370.059V599.975H388.959V604.475H370.059V624.425H390.459L391.584 616.7ZM418.605 629V623.675C424.505 618.325 429.405 613.65 433.305 609.65C437.255 605.65 440.18 602.075 442.08 598.925C444.03 595.775 445.005 592.775 445.005 589.925C445.005 586.775 443.955 584.45 441.855 582.95C439.755 581.45 437.105 580.7 433.905 580.7C432.555 580.7 431.055 580.85 429.405 581.15C427.755 581.45 426.055 581.875 424.305 582.425L423.405 590.525H419.58L418.905 578.825C421.755 577.925 424.53 577.225 427.23 576.725C429.98 576.225 432.505 575.975 434.805 575.975C438.055 575.975 440.93 576.45 443.43 577.4C445.93 578.3 447.905 579.725 449.355 581.675C450.805 583.575 451.53 586.05 451.53 589.1C451.53 592.5 450.58 595.9 448.68 599.3C446.83 602.7 444.055 606.4 440.355 610.4C436.655 614.35 432.055 618.875 426.555 623.975H452.805V629H418.605ZM479.876 629.675C473.526 629.675 468.826 627.475 465.776 623.075C462.726 618.675 461.201 612.075 461.201 603.275C461.201 594.175 462.801 587.35 466.001 582.8C469.251 578.25 474.226 575.975 480.926 575.975C487.426 575.975 492.076 578.075 494.876 582.275C497.726 586.475 499.151 592.95 499.151 601.7C499.151 620.35 492.726 629.675 479.876 629.675ZM480.101 624.875C484.451 624.875 487.626 623.025 489.626 619.325C491.676 615.625 492.726 609.95 492.776 602.3C492.826 597.05 492.401 592.85 491.501 589.7C490.601 586.55 489.251 584.275 487.451 582.875C485.651 581.475 483.401 580.775 480.701 580.775C476.151 580.775 472.826 582.6 470.726 586.25C468.626 589.9 467.576 595.475 467.576 602.975C467.576 610.475 468.601 616 470.651 619.55C472.701 623.1 475.851 624.875 480.101 624.875ZM507.448 629V623.675C513.348 618.325 518.248 613.65 522.148 609.65C526.098 605.65 529.023 602.075 530.923 598.925C532.873 595.775 533.848 592.775 533.848 589.925C533.848 586.775 532.798 584.45 530.698 582.95C528.598 581.45 525.948 580.7 522.748 580.7C521.398 580.7 519.898 580.85 518.248 581.15C516.598 581.45 514.898 581.875 513.148 582.425L512.248 590.525H508.423L507.748 578.825C510.598 577.925 513.373 577.225 516.073 576.725C518.823 576.225 521.348 575.975 523.648 575.975C526.898 575.975 529.773 576.45 532.273 577.4C534.773 578.3 536.748 579.725 538.198 581.675C539.648 583.575 540.373 586.05 540.373 589.1C540.373 592.5 539.423 595.9 537.523 599.3C535.673 602.7 532.898 606.4 529.198 610.4C525.498 614.35 520.898 618.875 515.398 623.975H541.648V629H507.448ZM574.569 625.625V629H549.144V625.625L559.719 624.275V582.95L548.319 589.55L546.294 585.725L560.844 576.425H565.869V624.275L574.569 625.625Z" fill="white"/>
<path d="M138.668 410.324C145.396 408.391 151.584 409.257 157.233 412.923C162.802 416.612 167.105 423.743 170.142 434.315L179.739 467.714L174.573 469.198L169.442 459.487L100.602 479.267L101.649 490.152L96.4826 491.636L90.1862 471.986L85.9057 457.088C83.4203 448.438 83.3583 441.433 85.7197 436.073C88.0011 430.735 92.4256 427.123 98.9932 425.235C104.119 423.763 108.807 423.933 113.056 425.747C117.306 427.56 121.049 431.384 124.285 437.217C123.05 430.202 123.677 424.386 126.165 419.769C128.574 415.175 132.741 412.027 138.668 410.324ZM93.7009 457.06L97.291 469.554L127.566 460.855L124.839 451.364C120.812 437.348 113.592 431.836 103.18 434.827C98.2942 436.231 95.0872 438.8 93.559 442.534C91.9506 446.291 91.9979 451.133 93.7009 457.06ZM163.141 437.107C161.093 429.979 158.173 425.095 154.38 422.457C150.564 419.738 146.093 419.115 140.967 420.588C136.001 422.015 132.566 424.693 130.66 428.622C128.674 432.574 128.498 437.394 130.132 443.08L134.654 458.818L166.731 449.602L163.141 437.107Z" fill="white"/>
<path d="M156.556 362.819L161.893 363.461L158.224 393.991L152.887 393.349L151.926 383.54L76.4197 344.501L77.2854 334.155L160.07 315.777L163.328 306.475L168.665 307.116L164.787 339.384L159.45 338.742L158.588 327.056L141.039 330.612L136.788 365.983L153.045 374.232L156.556 362.819ZM129.625 362.73L133.324 331.951L86.2647 341.152L129.625 362.73Z" fill="white"/>
<path d="M172.833 299.759L168.178 297.072L171.603 286.637L109.569 250.833L102.463 259.144L97.8075 256.457L107.951 237.632L115.262 224.965C119.969 216.809 125.227 211.617 131.035 209.389C136.843 207.161 142.959 207.9 149.383 211.608C154.868 214.774 158.535 219.007 160.383 224.307C162.159 229.565 161.713 235.755 159.047 242.875C161.549 240.375 164.196 238.872 166.989 238.367C169.751 237.748 173.086 237.556 176.992 237.79L199.079 239.281L204.981 233.306L209.637 235.993L201.951 249.309L174.875 246.959C171.052 246.581 167.9 246.542 165.418 246.841C162.977 247.068 160.855 247.912 159.05 249.372C157.245 250.832 155.384 253.222 153.468 256.542L150.202 262.451L176.618 277.697L185.111 267.733L189.766 270.42L172.833 299.759ZM121.241 229.859L114.368 241.768L143.707 258.701L148.705 250.04C152.413 243.617 153.967 237.923 153.368 232.959C152.697 227.953 149.8 223.972 144.675 221.014C140.273 218.473 136.068 217.923 132.062 219.363C128.055 220.803 124.449 224.302 121.241 229.859Z" fill="white"/>
<path d="M255.122 169.019C259.42 174.544 260.92 180.61 259.62 187.217C258.269 193.759 253.253 200.407 244.572 207.162L217.146 228.502L213.845 224.26L220.948 215.883L176.963 159.354L167.25 164.377L163.95 160.135L179.844 146.976L192.077 137.458C199.18 131.931 205.659 129.266 211.513 129.462C217.316 129.592 222.316 132.354 226.512 137.747C229.788 141.956 231.374 146.37 231.273 150.99C231.172 155.609 229.016 160.506 224.808 165.682C230.859 161.924 236.49 160.34 241.701 160.931C246.861 161.456 251.335 164.152 255.122 169.019ZM195.005 144.682L184.745 152.665L204.089 177.526L211.883 171.462C223.393 162.506 225.821 153.753 219.168 145.203C216.047 141.191 212.469 139.171 208.434 139.143C204.349 139.049 199.872 140.895 195.005 144.682ZM239.374 201.704C245.227 197.149 248.673 192.621 249.71 188.118C250.812 183.565 249.726 179.183 246.451 174.974C243.278 170.896 239.514 168.704 235.157 168.398C230.75 168.026 226.212 169.657 221.542 173.291L208.618 183.347L229.114 209.687L239.374 201.704Z" fill="white"/>
<path d="M332.284 144.666L338.28 142.902L344.068 162.568L283.511 180.391L281.994 175.235L291.671 170.041L271.448 101.33L260.57 102.447L259.053 97.2906L278.902 90.7969L317.994 79.2912L323.57 98.2376L317.575 100.002L312.232 88.9353L281.175 98.0764L289.998 128.055L320.216 119.161L322.334 126.356L292.116 135.25L301.504 167.147L334.121 157.547L332.284 144.666Z" fill="white"/>
<path d="M359.915 160.062L360.415 154.711L371.328 153.471L377.993 82.1566L367.476 79.1649L367.976 73.8132L389.316 75.1801L403.878 76.5411C413.254 77.4174 420.166 80.0303 424.614 84.3797C429.061 88.7292 430.94 94.5962 430.25 101.981C429.661 108.287 427.343 113.385 423.297 117.275C419.258 121.082 413.447 123.259 405.863 123.806C409.18 125.037 411.65 126.816 413.274 129.144C414.988 131.396 416.554 134.347 417.97 137.994L425.828 158.69L433.72 161.562L433.22 166.914L417.912 165.483L408.753 139.895C407.503 136.263 406.224 133.381 404.916 131.25C403.692 129.127 402.04 127.55 399.96 126.518C397.88 125.487 394.932 124.793 391.115 124.436L384.383 123.933L381.545 154.3L394.143 157.863L393.643 163.215L359.915 160.062ZM401.924 84.0167L388.234 82.7371L385.081 116.465L395.038 117.396C402.422 118.086 408.245 117.124 412.507 114.509C416.777 111.811 419.187 107.517 419.737 101.626C420.21 96.5645 418.957 92.5136 415.977 89.4731C412.997 86.4326 408.313 84.6138 401.924 84.0167Z" fill="white"/>
<path d="M519.313 135.776C517.516 138.383 516.736 140.983 516.973 143.576C517.21 146.168 518.082 148.794 519.589 151.452C521.213 154.09 523.113 156.766 525.29 159.481C527.466 162.196 529.572 165.014 531.607 167.936C533.69 170.788 535.343 173.749 536.566 176.82C537.837 179.821 538.331 182.996 538.048 186.343C537.88 189.669 536.567 193.116 534.108 196.684C530.797 201.486 526.842 204.58 522.244 205.965C517.714 207.397 512.905 207.472 507.816 206.191C502.775 204.842 497.853 202.511 493.05 199.2C489.62 196.836 486.357 194.08 483.262 190.935C480.215 187.721 477.473 184.211 475.035 180.405L487.288 163.952L492.331 167.429L485.787 180.225C489.012 185.384 493.095 189.666 498.034 193.072C501.259 195.294 504.541 196.848 507.878 197.732C511.216 198.616 514.395 198.631 517.413 197.776C520.431 196.922 522.957 195.019 524.991 192.069C526.883 189.325 527.676 186.632 527.37 183.993C527.181 181.331 526.308 178.706 524.754 176.116C523.246 173.457 521.404 170.77 519.227 168.055C517.05 165.34 514.921 162.556 512.839 159.704C510.756 156.851 509.08 153.924 507.809 150.922C506.538 147.921 505.963 144.791 506.083 141.534C506.318 138.255 507.666 134.832 510.126 131.264C513.153 126.873 516.723 123.97 520.836 122.555C525.066 121.118 529.529 120.956 534.228 122.069C538.926 123.183 543.608 125.347 548.273 128.563C554.997 133.199 560.82 139.288 565.742 146.83L553.78 162.421L548.634 158.873L555.139 146.353C553.738 144.274 552.082 142.272 550.17 140.347C548.259 138.422 546.205 136.703 544.009 135.189C541.128 133.203 538.134 131.746 535.028 130.819C532.037 129.871 529.138 129.745 526.331 130.441C523.591 131.185 521.252 132.963 519.313 135.776Z" fill="white"/>
<path d="M533.214 225.782L537.778 222.942L545.368 230.88L606.177 193.031L602.194 182.848L606.757 180.007L624.132 206.738L619.568 209.579L611.699 201.667L585.275 218.114L609.186 256.531L635.61 240.084L631.522 229.966L636.085 227.126L653.459 253.857L648.896 256.697L641.027 248.786L580.112 286.7L583.949 297.122L579.385 299.962L562.542 272.901L567.105 270.06L574.696 277.998L602.712 260.56L578.801 222.144L550.785 239.582L554.621 250.003L550.058 252.843L533.214 225.782Z" fill="white"/>
<path d="M586.161 351.974C585.417 344.846 586.362 338.254 588.997 332.198C591.641 326.224 596.022 321.242 602.14 317.251C608.268 313.343 616.18 310.883 625.877 309.87C635.989 308.814 644.583 309.676 651.66 312.456C658.746 315.318 664.258 319.56 668.197 325.181C672.227 330.877 674.623 337.371 675.385 344.665C676.129 351.793 675.184 358.385 672.549 364.442C670.006 370.572 665.72 375.67 659.693 379.735C653.666 383.8 645.887 386.33 636.356 387.326C626.659 388.339 618.184 387.422 610.933 384.577C603.69 381.815 597.929 377.599 593.65 371.929C589.454 366.251 586.958 359.599 586.161 351.974ZM594.307 351.752C594.844 356.89 596.622 361.481 599.642 365.522C602.753 369.638 607.178 372.695 612.916 374.693C618.664 376.773 625.889 377.359 634.591 376.45C642.797 375.593 649.38 373.649 654.342 370.617C659.396 367.659 662.945 363.937 664.99 359.45C667.043 355.046 667.797 350.233 667.252 345.012C666.724 339.956 664.95 335.407 661.93 331.366C659.002 327.399 654.669 324.416 648.93 322.418C643.275 320.411 636.095 319.863 627.393 320.772C619.105 321.637 612.434 323.549 607.38 326.507C602.327 329.465 598.732 333.15 596.596 337.562C594.542 341.966 593.779 346.696 594.307 351.752Z" fill="white"/>
<path d="M611.758 446.086L614.467 437.111L589.815 429.671L583.689 442.184L578.543 440.631L588.583 407.363L593.729 408.916L592.777 419.858L661.467 440.588L666.368 430.839L671.514 432.392L665.972 452.916L661.891 466.439C659.122 475.613 654.79 481.748 648.894 484.843C642.998 487.939 636.42 488.391 629.161 486.2C621.103 483.768 615.38 479.081 611.991 472.139C608.658 465.301 608.58 456.617 611.758 446.086ZM655.025 462.799L658.745 450.474L621.767 439.314L619.058 448.289C616.939 455.309 617.069 461.224 619.448 466.033C621.803 470.922 625.972 474.269 631.955 476.075C637.38 477.712 642.13 477.405 646.204 475.153C650.255 472.98 653.195 468.863 655.025 462.799Z" fill="white"/>
</svg>
