<svg width="750" height="750" viewBox="0 0 750 750" fill="none" xmlns="http://www.w3.org/2000/svg">
<g clip-path="url(#clip0)">
<rect width="750" height="750" rx="250" fill="#0C4FB4"/>
<path d="M474.197 648H450.027L411.209 594.167C401.688 602.712 391.556 610.769 380.813 618.337C370.315 625.661 359.207 632.131 347.488 637.746C335.77 643.117 323.685 647.39 311.233 650.563C299.026 653.737 286.575 655.324 273.88 655.324C246.292 655.324 220.291 650.686 195.877 641.408C171.707 632.131 150.467 618.703 132.156 601.125C114.09 583.303 99.8076 561.574 89.3096 535.939C78.8115 510.305 73.5625 481.13 73.5625 448.415C73.5625 417.897 78.8115 389.943 89.3096 364.553C99.8076 338.918 114.09 316.945 132.156 298.635C150.467 280.324 171.707 266.164 195.877 256.154C220.291 245.9 246.292 240.773 273.88 240.773C286.575 240.773 299.148 242.36 311.6 245.534C324.051 248.708 336.136 253.103 347.854 258.718C359.573 264.333 370.682 270.925 381.18 278.493C391.922 286.062 401.932 294.24 411.209 303.029L450.027 256.521H474.197V648ZM373.489 448.415C373.489 434.743 370.804 421.56 365.433 408.864C360.306 395.925 353.226 384.572 344.192 374.807C335.159 364.797 324.539 356.862 312.332 351.003C300.369 344.899 287.552 341.848 273.88 341.848C260.208 341.848 247.269 344.167 235.062 348.806C223.099 353.444 212.601 360.28 203.567 369.313C194.778 378.347 187.82 389.577 182.693 403.005C177.566 416.188 175.003 431.325 175.003 448.415C175.003 465.505 177.566 480.764 182.693 494.191C187.82 507.375 194.778 518.483 203.567 527.517C212.601 536.55 223.099 543.386 235.062 548.024C247.269 552.663 260.208 554.982 273.88 554.982C287.552 554.982 300.369 552.053 312.332 546.193C324.539 540.09 335.159 532.155 344.192 522.39C353.226 512.38 360.306 501.027 365.433 488.332C370.804 475.393 373.489 462.087 373.489 448.415Z" fill="#F9F8F8"/>
</g>
<defs>
<clipPath id="clip0">
<rect width="750" height="750" rx="250" fill="white"/>
</clipPath>
</defs>
</svg>
